<svg
  class="vector"
  width="236"
  height="86"
  viewBox="0 0 236 86"
  fill="none"
  xmlns="http://www.w3.org/2000/svg"
>
  <path
    d="M83.168 10.5106H94.2987L94.2988 36.7174C95.3626 35.2385 96.8286 34.0839 98.6966 33.2537C100.565 32.3975 102.614 31.9694 104.846 31.9694C109.153 31.9694 112.461 33.3056 114.77 35.978C117.079 38.6504 118.234 42.2828 118.234 46.8752V69.1755H107.142V49.4827C107.142 46.499 106.48 44.5271 105.157 43.5671C103.834 42.5812 102.472 42.0882 101.071 42.0882C99.488 42.0882 97.9442 42.5422 96.4394 43.4503C94.9605 44.3325 94.221 46.2395 94.221 49.1714V69.1755H83.1681L83.168 10.5106Z"
    fill="black"
  />
  <path
    d="M160.158 33.2139V69.1746H149.456V65.0493C148.236 66.632 146.537 67.8903 144.357 68.8244C142.178 69.7584 139.817 70.2254 137.274 70.2254C133.927 70.2254 130.956 69.4471 128.362 67.8903C125.793 66.3076 123.808 64.1152 122.407 61.3131C121.006 58.485 120.306 55.2029 120.306 51.4667C120.306 47.5748 121.058 44.163 122.563 41.2311C124.068 38.2993 126.182 36.029 128.907 34.4204C131.657 32.7858 134.783 31.9685 138.286 31.9685C143.449 31.9685 147.38 33.5512 150.078 36.7166L150.818 33.2139H160.158ZM140.232 60.1844C142.827 60.1844 144.928 59.3542 146.537 57.6937C148.171 56.0072 148.989 53.7759 148.989 50.9997C148.989 48.3013 148.171 46.1349 146.537 44.5003C144.928 42.8398 142.827 42.0095 140.232 42.0095C137.637 42.0095 135.562 42.8527 134.005 44.5392C132.448 46.1997 131.67 48.3792 131.67 51.0775C131.67 53.7759 132.448 55.9683 134.005 57.6547C135.588 59.3412 137.663 60.1844 140.232 60.1844Z"
    fill="black"
  />
  <path
    d="M173.686 33.2142L177.344 43.9168C178.201 46.3557 179.031 48.9892 179.835 51.8172C180.665 54.6194 181.21 56.4485 181.47 57.3048C181.781 56.3967 182.43 54.4896 183.416 51.5837C184.402 48.6519 185.323 46.0962 186.179 43.9168L190.265 33.2142H201.746L186.685 69.1749H175.749L161.738 33.2142H173.686Z"
    fill="black"
  />
  <path
    d="M235.113 56.8764C234.379 60.5448 232.392 63.5175 229.153 65.7944C225.913 68.0461 222.04 69.1719 217.535 69.1719C213.865 69.1719 210.626 68.4003 207.816 66.857C205.007 65.2885 202.83 63.1001 201.286 60.2918C199.742 57.4583 198.97 54.1947 198.97 50.501C198.97 46.782 199.742 43.5057 201.286 40.6722C202.83 37.8387 205.007 35.6629 207.816 34.1449C210.626 32.627 213.789 31.868 217.307 31.868C220.775 31.868 223.85 32.589 226.533 34.0311C229.241 35.4732 231.329 37.4845 232.797 40.065C234.291 42.6202 235.037 45.5297 235.037 48.7933C235.037 50.6148 234.885 52.196 234.582 53.5369H209.676C209.778 55.6114 210.537 57.2686 211.954 58.5082C213.397 59.7479 215.257 60.3677 217.535 60.3677C219.256 60.3677 220.737 60.0515 221.977 59.419C223.217 58.7612 224.065 57.9137 224.521 56.8764H235.113ZM223.913 46.4784C223.863 44.7074 223.179 43.3033 221.863 42.266C220.572 41.2288 218.927 40.7101 216.928 40.7101C214.903 40.7101 213.232 41.2288 211.916 42.266C210.626 43.3033 209.93 44.7074 209.828 46.4784H223.913Z"
    fill="black"
  />
  <path
    fill-rule="evenodd"
    clip-rule="evenodd"
    d="M73.5608 17.7435C73.2852 18.6209 73.3723 19.1662 73.5459 19.5047C73.7353 19.8741 74.1936 20.312 75.2555 20.6018C76.3202 20.8923 77.8013 20.9716 79.6306 20.7493C80.7007 20.6192 81.6736 21.3813 81.8036 22.4514C81.9337 23.5215 81.1716 24.4944 80.1015 24.6244C77.965 24.884 75.9392 24.8348 74.2277 24.3677C72.5134 23.8998 70.9261 22.951 70.0723 21.2859C69.2972 19.7745 69.3542 18.1095 69.8365 16.5738C70.3153 15.0494 71.2467 13.5207 72.4489 12.0689C74.8579 9.15944 78.6053 6.25603 83.0938 3.95439C87.5823 1.65275 92.1269 0.304093 95.8954 0.0457354C97.776 -0.083187 99.5609 0.0525993 101.078 0.553424C102.607 1.05797 103.992 1.98339 104.767 3.49485C105.733 5.37868 105.409 7.47749 104.575 9.32167C103.733 11.1815 102.26 13.063 100.403 14.8259C99.6212 15.568 98.3857 15.5358 97.6436 14.7539C96.9015 13.9721 96.9338 12.7367 97.7156 11.9946C99.3504 10.4429 100.453 8.9613 101.018 7.71208C101.591 6.44716 101.506 5.69086 101.293 5.27606C101.12 4.93758 100.728 4.54862 99.8546 4.26035C98.97 3.96835 97.7285 3.83288 96.1624 3.94025C93.0377 4.15447 89.008 5.30861 84.875 7.42797C80.742 9.54733 77.4531 12.1461 75.4556 14.5585C74.4544 15.7676 73.84 16.8547 73.5608 17.7435Z"
    fill="#1FA76E"
  />
  <path
    d="M33.7376 33.8958V69.1202H24.7028L23.9785 65.1555C22.7332 66.8329 21.1829 68.0909 19.3277 68.9296C17.4978 69.7428 15.452 70.1495 13.1901 70.1495C8.97128 70.1495 5.71824 68.9042 3.43094 66.4136C1.14365 63.8975 0 60.4793 0 56.1588V33.8958H10.9409V54.5196C10.9409 56.7052 11.4492 58.2809 12.4658 59.2467C13.4823 60.2124 14.9564 60.6953 16.8879 60.6953C18.7685 60.6953 20.2172 60.1108 21.2337 58.9417C22.2757 57.7726 22.7967 56.197 22.7967 54.2146V33.8958H33.7376Z"
    fill="black"
  />
  <path
    d="M61.0922 32.6759C64.4723 32.6759 67.4712 33.4511 70.0889 35.0013C72.732 36.5516 74.7905 38.75 76.2646 41.5964C77.764 44.4428 78.5137 47.7085 78.5137 51.3936C78.5137 55.0787 77.764 58.3445 76.2646 61.1909C74.7905 64.0373 72.732 66.2484 70.0889 67.8241C67.4712 69.3743 64.4723 70.1495 61.0922 70.1495C58.8049 70.1495 56.7463 69.8191 54.9165 69.1583C53.0866 68.4975 51.5745 67.5699 50.38 66.3754V85.7412H39.4772V33.8958H48.512L49.1601 37.9748C50.3546 36.2975 52.0065 35.0013 54.1159 34.0864C56.2253 33.1461 58.5507 32.6759 61.0922 32.6759ZM58.9955 60.3903C61.4861 60.3903 63.4938 59.5771 65.0187 57.9506C66.569 56.2986 67.3441 54.1384 67.3441 51.4699C67.3441 48.8268 66.5817 46.692 65.0568 45.0654C63.5574 43.4135 61.5369 42.5875 58.9955 42.5875C56.454 42.5875 54.3955 43.4008 52.8198 45.0273C51.2441 46.6284 50.4562 48.7759 50.4562 51.4699C50.4562 54.1638 51.2314 56.324 52.7817 57.9506C54.3573 59.5771 56.4286 60.3903 58.9955 60.3903Z"
    fill="black"
  />
</svg>
