<svg width="549" height="79" viewBox="0 0 549 79" fill="none" xmlns="http://www.w3.org/2000/svg">
<path d="M32.0634 21.5078C34.6154 21.5078 36.7034 21.8945 38.3274 22.6678C39.9901 23.4025 41.4594 24.2725 42.7354 25.2778C43.5088 25.8578 44.0888 25.9351 44.4754 25.5098C44.9008 25.0458 45.1908 23.9825 45.3454 22.3198H46.6794C46.6021 23.7891 46.5441 25.5678 46.5054 27.6558C46.4668 29.7051 46.4474 32.4505 46.4474 35.8918H45.1134C44.8428 34.1905 44.5721 32.7985 44.3014 31.7158C44.0694 30.6331 43.7408 29.7051 43.3154 28.9318C42.9288 28.1585 42.3874 27.4045 41.6914 26.6698C40.5701 25.2778 39.1974 24.2725 37.5734 23.6538C35.9494 23.0351 34.2288 22.7258 32.4114 22.7258C30.4394 22.7258 28.6994 23.2285 27.1914 24.2338C25.6834 25.2005 24.4074 26.5925 23.3634 28.4098C22.3581 30.2271 21.5848 32.3731 21.0434 34.8478C20.5021 37.3225 20.2314 40.0291 20.2314 42.9678C20.2314 45.9838 20.5214 48.7291 21.1014 51.2038C21.6814 53.6398 22.5128 55.7471 23.5954 57.5258C24.7168 59.2658 26.0508 60.6191 27.5974 61.5858C29.1828 62.5138 30.9421 62.9778 32.8754 62.9778C34.4608 62.9778 36.1041 62.6685 37.8054 62.0498C39.5068 61.3925 40.8601 60.4065 41.8654 59.0918C42.9481 57.9318 43.6828 56.6365 44.0694 55.2058C44.4948 53.7365 44.8428 51.7451 45.1134 49.2318H46.4474C46.4474 52.7891 46.4668 55.6698 46.5054 57.8738C46.5441 60.0391 46.6021 61.8758 46.6794 63.3838H45.3454C45.1908 61.7211 44.9201 60.6771 44.5334 60.2518C44.1854 59.8265 43.5861 59.8845 42.7354 60.4258C41.3048 61.4311 39.7774 62.3205 38.1534 63.0938C36.5681 63.8285 34.5188 64.1958 32.0054 64.1958C28.1774 64.1958 24.8328 63.3645 21.9714 61.7018C19.1101 60.0391 16.8868 57.6418 15.3014 54.5098C13.7161 51.3778 12.9234 47.6078 12.9234 43.1998C12.9234 38.8691 13.7354 35.0798 15.3594 31.8318C17.0221 28.5838 19.2841 26.0511 22.1454 24.2338C25.0068 22.4165 28.3128 21.5078 32.0634 21.5078ZM63.0549 17.9698V39.0818C64.0216 36.6845 65.3749 35.0218 67.1149 34.0938C68.8936 33.1271 70.7689 32.6438 72.7409 32.6438C74.2876 32.6438 75.5443 32.8565 76.5109 33.2818C77.5163 33.6685 78.3476 34.2098 79.0049 34.9058C79.7009 35.6405 80.2036 36.5878 80.5129 37.7478C80.8223 38.9078 80.9769 40.4738 80.9769 42.4458V57.9898C80.9769 59.6138 81.2863 60.7158 81.9049 61.2958C82.5623 61.8758 83.6449 62.1658 85.1529 62.1658V63.3838C84.4569 63.3451 83.4129 63.3065 82.0209 63.2678C80.6289 63.1905 79.2756 63.1518 77.9609 63.1518C76.6076 63.1518 75.2736 63.1905 73.9589 63.2678C72.6829 63.3065 71.7356 63.3451 71.1169 63.3838V62.1658C72.4316 62.1658 73.3596 61.8758 73.9009 61.2958C74.4423 60.7158 74.7129 59.6138 74.7129 57.9898V40.8218C74.7129 39.7005 74.6163 38.6951 74.4229 37.8058C74.2296 36.8778 73.8043 36.1431 73.1469 35.6018C72.5283 35.0218 71.6003 34.7318 70.3629 34.7318C68.9709 34.7318 67.7143 35.1378 66.5929 35.9498C65.5103 36.7231 64.6403 37.8058 63.9829 39.1978C63.3643 40.5898 63.0549 42.1751 63.0549 43.9538V57.9898C63.0549 59.6138 63.3256 60.7158 63.8669 61.2958C64.4083 61.8758 65.3363 62.1658 66.6509 62.1658V63.3838C65.9936 63.3451 65.0269 63.3065 63.7509 63.2678C62.5136 63.1905 61.2376 63.1518 59.9229 63.1518C58.5696 63.1518 57.1776 63.1905 55.7469 63.2678C54.3549 63.3065 53.3109 63.3451 52.6149 63.3838V62.1658C54.1229 62.1658 55.1863 61.8758 55.8049 61.2958C56.4623 60.7158 56.7909 59.6138 56.7909 57.9898V24.9298C56.7909 23.1898 56.4816 21.9138 55.8629 21.1018C55.2829 20.2511 54.2003 19.8258 52.6149 19.8258V18.6078C53.8523 18.7238 55.0509 18.7818 56.2109 18.7818C57.4869 18.7818 58.7049 18.7238 59.8649 18.6078C61.0249 18.4531 62.0883 18.2405 63.0549 17.9698ZM103.175 32.6438C105.766 32.6438 108.066 33.1851 110.077 34.2678C112.088 35.3505 113.692 37.0518 114.891 39.3718C116.09 41.6918 116.689 44.7271 116.689 48.4778C116.689 52.2285 116.09 55.2638 114.891 57.5838C113.692 59.8651 112.088 61.5471 110.077 62.6298C108.066 63.6738 105.766 64.1958 103.175 64.1958C100.623 64.1958 98.3224 63.6738 96.2731 62.6298C94.2237 61.5471 92.5997 59.8651 91.4011 57.5838C90.2411 55.2638 89.6611 52.2285 89.6611 48.4778C89.6611 44.7271 90.2411 41.6918 91.4011 39.3718C92.5997 37.0518 94.2237 35.3505 96.2731 34.2678C98.3224 33.1851 100.623 32.6438 103.175 32.6438ZM103.175 33.8038C101.164 33.8038 99.5211 34.9638 98.2451 37.2838C96.9691 39.5651 96.3311 43.2965 96.3311 48.4778C96.3311 53.6591 96.9691 57.3905 98.2451 59.6718C99.5211 61.9145 101.164 63.0358 103.175 63.0358C105.147 63.0358 106.771 61.9145 108.047 59.6718C109.362 57.3905 110.019 53.6591 110.019 48.4778C110.019 43.2965 109.362 39.5651 108.047 37.2838C106.771 34.9638 105.147 33.8038 103.175 33.8038ZM132.738 32.6438C134.285 32.6438 135.619 32.8951 136.74 33.3978C137.9 33.8618 138.732 34.2871 139.234 34.6738C140.51 35.6791 141.303 35.0218 141.612 32.7018H142.888C142.811 33.7845 142.753 35.0991 142.714 36.6458C142.676 38.1538 142.656 40.1645 142.656 42.6778H141.38C141.148 41.2471 140.742 39.8551 140.162 38.5018C139.621 37.1485 138.809 36.0271 137.726 35.1378C136.682 34.2485 135.31 33.8038 133.608 33.8038C132.332 33.8038 131.269 34.1711 130.418 34.9058C129.568 35.6018 129.142 36.6458 129.142 38.0378C129.142 39.1978 129.49 40.2031 130.186 41.0538C130.882 41.9045 131.772 42.6971 132.854 43.4318C133.976 44.1665 135.174 44.9591 136.45 45.8098C137.881 46.7765 139.157 47.7431 140.278 48.7098C141.438 49.6378 142.347 50.6818 143.004 51.8418C143.7 53.0018 144.048 54.3551 144.048 55.9018C144.048 57.6805 143.565 59.1885 142.598 60.4258C141.67 61.6631 140.433 62.6105 138.886 63.2678C137.34 63.8865 135.638 64.1958 133.782 64.1958C132.854 64.1958 131.984 64.0991 131.172 63.9058C130.36 63.7511 129.606 63.5385 128.91 63.2678C128.485 63.0358 128.06 62.8038 127.634 62.5718C127.248 62.3011 126.861 62.0498 126.474 61.8178C126.088 61.5471 125.74 61.5858 125.43 61.9338C125.121 62.2818 124.889 62.9005 124.734 63.7898H123.458C123.536 62.5525 123.594 61.0445 123.632 59.2658C123.671 57.4871 123.69 55.1285 123.69 52.1898H124.966C125.237 54.3165 125.643 56.1918 126.184 57.8158C126.726 59.4398 127.518 60.7158 128.562 61.6438C129.645 62.5331 131.114 62.9778 132.97 62.9778C133.705 62.9778 134.44 62.8231 135.174 62.5138C135.909 62.1658 136.508 61.6245 136.972 60.8898C137.475 60.1551 137.726 59.1691 137.726 57.9318C137.726 56.2305 137.127 54.8385 135.928 53.7558C134.768 52.6345 133.26 51.4551 131.404 50.2178C130.09 49.2898 128.833 48.3811 127.634 47.4918C126.474 46.5638 125.527 45.5391 124.792 44.4178C124.058 43.2578 123.69 41.8851 123.69 40.2998C123.69 38.5598 124.096 37.1291 124.908 36.0078C125.759 34.8865 126.88 34.0551 128.272 33.5138C129.664 32.9338 131.153 32.6438 132.738 32.6438ZM163.719 32.6438C167.122 32.6438 169.79 33.6685 171.723 35.7178C173.656 37.7671 174.623 41.0151 174.623 45.4618H154.613L154.497 44.3598H168.475C168.514 42.4651 168.359 40.7251 168.011 39.1398C167.663 37.5158 167.122 36.2205 166.387 35.2538C165.652 34.2871 164.686 33.8038 163.487 33.8038C161.824 33.8038 160.374 34.6931 159.137 36.4718C157.938 38.2118 157.204 41.0151 156.933 44.8818L157.107 45.1718C157.068 45.7131 157.03 46.3125 156.991 46.9698C156.952 47.5885 156.933 48.2071 156.933 48.8258C156.933 51.4938 157.339 53.7365 158.151 55.5538C158.963 57.3711 160.026 58.7438 161.341 59.6718C162.656 60.5611 163.99 61.0058 165.343 61.0058C166.387 61.0058 167.392 60.8511 168.359 60.5418C169.364 60.1938 170.312 59.6331 171.201 58.8598C172.09 58.0478 172.883 56.9458 173.579 55.5538L174.739 56.0178C174.275 57.3325 173.56 58.6278 172.593 59.9038C171.626 61.1798 170.389 62.2238 168.881 63.0358C167.373 63.8091 165.614 64.1958 163.603 64.1958C160.896 64.1958 158.538 63.5965 156.527 62.3978C154.516 61.1605 152.97 59.4011 151.887 57.1198C150.804 54.8385 150.263 52.1318 150.263 48.9998C150.263 45.5585 150.824 42.6198 151.945 40.1838C153.066 37.7478 154.632 35.8918 156.643 34.6158C158.692 33.3011 161.051 32.6438 163.719 32.6438Z" fill="#EF5379"/>
<path d="M223.023 33.4558V34.6158C222.289 34.7318 221.612 35.1185 220.993 35.7758C220.375 36.3945 219.775 37.4771 219.195 39.0238L210.147 63.2678L208.755 64.6598L197.445 37.9218C196.711 36.4138 195.995 35.5051 195.299 35.1958C194.642 34.8478 194.081 34.6738 193.617 34.6738V33.4558C194.584 33.5718 195.609 33.6685 196.691 33.7458C197.774 33.7845 198.895 33.8038 200.055 33.8038C201.37 33.8038 202.685 33.7651 203.999 33.6878C205.353 33.6105 206.609 33.5331 207.769 33.4558V34.6738C206.841 34.6738 206.01 34.7511 205.275 34.9058C204.579 35.0218 204.115 35.3891 203.883 36.0078C203.69 36.5878 203.883 37.5931 204.463 39.0238L211.655 56.7138L211.249 56.8878L217.107 41.3438C217.687 39.7971 217.919 38.5598 217.803 37.6318C217.687 36.6651 217.281 35.9498 216.585 35.4858C215.889 34.9831 214.865 34.6931 213.511 34.6158V33.4558C214.169 33.4945 214.768 33.5331 215.309 33.5718C215.889 33.5718 216.45 33.5911 216.991 33.6298C217.533 33.6298 218.074 33.6298 218.615 33.6298C219.466 33.6298 220.259 33.6105 220.993 33.5718C221.767 33.5331 222.443 33.4945 223.023 33.4558ZM210.147 63.2678L208.059 68.7198C207.673 69.6865 207.267 70.4985 206.841 71.1558C206.455 71.8131 206.029 72.3545 205.565 72.7798C204.985 73.3211 204.27 73.7078 203.419 73.9398C202.569 74.1718 201.718 74.2878 200.867 74.2878C200.055 74.2878 199.282 74.1331 198.547 73.8238C197.851 73.5531 197.271 73.1278 196.807 72.5478C196.343 71.9678 196.111 71.2525 196.111 70.4018C196.111 69.3965 196.44 68.5845 197.097 67.9658C197.755 67.3471 198.625 67.0378 199.707 67.0378C200.674 67.0378 201.486 67.2891 202.143 67.7918C202.801 68.3331 203.129 69.1065 203.129 70.1118C203.129 70.8078 202.936 71.4071 202.549 71.9098C202.201 72.4125 201.737 72.7991 201.157 73.0698C201.273 73.1085 201.389 73.1278 201.505 73.1278C201.621 73.1278 201.718 73.1278 201.795 73.1278C202.878 73.1278 203.845 72.7605 204.695 72.0258C205.546 71.3298 206.261 70.1891 206.841 68.6038L208.929 63.0358L210.147 63.2678ZM240.136 32.6438C242.727 32.6438 245.027 33.1851 247.038 34.2678C249.049 35.3505 250.653 37.0518 251.852 39.3718C253.051 41.6918 253.65 44.7271 253.65 48.4778C253.65 52.2285 253.051 55.2638 251.852 57.5838C250.653 59.8651 249.049 61.5471 247.038 62.6298C245.027 63.6738 242.727 64.1958 240.136 64.1958C237.584 64.1958 235.283 63.6738 233.234 62.6298C231.185 61.5471 229.561 59.8651 228.362 57.5838C227.202 55.2638 226.622 52.2285 226.622 48.4778C226.622 44.7271 227.202 41.6918 228.362 39.3718C229.561 37.0518 231.185 35.3505 233.234 34.2678C235.283 33.1851 237.584 32.6438 240.136 32.6438ZM240.136 33.8038C238.125 33.8038 236.482 34.9638 235.206 37.2838C233.93 39.5651 233.292 43.2965 233.292 48.4778C233.292 53.6591 233.93 57.3905 235.206 59.6718C236.482 61.9145 238.125 63.0358 240.136 63.0358C242.108 63.0358 243.732 61.9145 245.008 59.6718C246.323 57.3905 246.98 53.6591 246.98 48.4778C246.98 43.2965 246.323 39.5651 245.008 37.2838C243.732 34.9638 242.108 33.8038 240.136 33.8038ZM286.113 32.8178V57.1198C286.113 58.8598 286.403 60.1551 286.983 61.0058C287.602 61.8178 288.704 62.2238 290.289 62.2238V63.4418C289.091 63.3258 287.892 63.2678 286.693 63.2678C285.417 63.2678 284.199 63.3258 283.039 63.4418C281.879 63.5578 280.816 63.7705 279.849 64.0798V57.7578C278.883 60.0778 277.529 61.7405 275.789 62.7458C274.088 63.7125 272.29 64.1958 270.395 64.1958C268.965 64.1958 267.747 63.9831 266.741 63.5578C265.736 63.1711 264.905 62.6491 264.247 61.9918C263.551 61.2185 263.068 60.2325 262.797 59.0338C262.527 57.7965 262.391 56.2498 262.391 54.3938V39.7778C262.391 38.0378 262.101 36.7618 261.521 35.9498C260.941 35.0991 259.839 34.6738 258.215 34.6738V33.4558C259.453 33.5718 260.651 33.6298 261.811 33.6298C263.087 33.6298 264.305 33.5718 265.465 33.4558C266.625 33.3011 267.689 33.0885 268.655 32.8178V56.0178C268.655 57.1391 268.733 58.1638 268.887 59.0918C269.042 60.0198 269.409 60.7545 269.989 61.2958C270.569 61.8371 271.497 62.1078 272.773 62.1078C274.127 62.1078 275.325 61.7018 276.369 60.8898C277.452 60.0778 278.303 58.9758 278.921 57.5838C279.54 56.1918 279.849 54.6258 279.849 52.8858V39.7778C279.849 38.0378 279.559 36.7618 278.979 35.9498C278.399 35.0991 277.297 34.6738 275.673 34.6738V33.4558C276.911 33.5718 278.109 33.6298 279.269 33.6298C280.545 33.6298 281.763 33.5718 282.923 33.4558C284.083 33.3011 285.147 33.0885 286.113 32.8178ZM312.902 32.6438C314.023 32.6438 314.97 32.8758 315.744 33.3398C316.556 33.8038 317.155 34.4031 317.542 35.1378C317.967 35.8338 318.18 36.6265 318.18 37.5158C318.18 38.6371 317.832 39.6038 317.136 40.4158C316.478 41.1891 315.589 41.5758 314.468 41.5758C313.501 41.5758 312.67 41.2858 311.974 40.7058C311.316 40.1258 310.988 39.3331 310.988 38.3278C310.988 37.4771 311.2 36.7618 311.626 36.1818C312.09 35.5631 312.612 35.0798 313.192 34.7318C312.805 34.4225 312.341 34.2871 311.8 34.3258C310.756 34.3645 309.789 34.7125 308.9 35.3698C308.01 35.9885 307.256 36.8005 306.638 37.8058C306.019 38.7725 305.536 39.8165 305.188 40.9378C304.84 42.0591 304.666 43.1031 304.666 44.0698V57.4098C304.666 59.3045 305.188 60.5805 306.232 61.2378C307.276 61.8565 308.726 62.1658 310.582 62.1658V63.3838C309.692 63.3451 308.416 63.3065 306.754 63.2678C305.13 63.1905 303.409 63.1518 301.592 63.1518C300.2 63.1518 298.808 63.1905 297.416 63.2678C296.024 63.3065 294.96 63.3451 294.226 63.3838V62.1658C295.734 62.1658 296.797 61.8758 297.416 61.2958C298.073 60.7158 298.402 59.6138 298.402 57.9898V39.7778C298.402 38.0378 298.112 36.7618 297.532 35.9498C296.952 35.0991 295.85 34.6738 294.226 34.6738V33.4558C295.463 33.5718 296.662 33.6298 297.822 33.6298C299.136 33.6298 300.354 33.5718 301.476 33.4558C302.636 33.3011 303.699 33.0885 304.666 32.8178V39.4878C305.13 38.3665 305.748 37.2838 306.522 36.2398C307.295 35.1958 308.223 34.3451 309.306 33.6878C310.388 32.9918 311.587 32.6438 312.902 32.6438Z" fill="#1F1F1F"/>
<path d="M351.321 32.6438C352.636 32.6438 353.893 32.8178 355.091 33.1658C356.29 33.4751 357.334 33.9198 358.223 34.4998C359.151 35.0798 359.847 35.7758 360.311 36.5878C360.814 37.3998 361.065 38.2891 361.065 39.2558C361.065 40.4158 360.737 41.3245 360.079 41.9818C359.422 42.6391 358.571 42.9678 357.527 42.9678C356.483 42.9678 355.613 42.6778 354.917 42.0978C354.221 41.5178 353.873 40.6865 353.873 39.6038C353.873 38.5985 354.163 37.7865 354.743 37.1678C355.323 36.5105 356 36.0851 356.773 35.8918C356.425 35.3118 355.807 34.8285 354.917 34.4418C354.067 34.0165 353.139 33.8038 352.133 33.8038C351.089 33.8038 350.084 34.0745 349.117 34.6158C348.189 35.1571 347.358 35.9885 346.623 37.1098C345.889 38.2311 345.289 39.6811 344.825 41.4598C344.4 43.2385 344.187 45.3845 344.187 47.8978C344.187 51.1458 344.555 53.7365 345.289 55.6698C346.063 57.5645 347.068 58.9178 348.305 59.7298C349.543 60.5418 350.877 60.9478 352.307 60.9478C353.235 60.9478 354.183 60.7738 355.149 60.4258C356.155 60.0778 357.102 59.4978 357.991 58.6858C358.919 57.8738 359.731 56.7718 360.427 55.3798L361.529 55.7858C361.104 57.0618 360.427 58.3571 359.499 59.6718C358.61 60.9865 357.431 62.0691 355.961 62.9198C354.492 63.7705 352.694 64.1958 350.567 64.1958C348.131 64.1958 345.927 63.5965 343.955 62.3978C341.983 61.1991 340.417 59.4591 339.257 57.1778C338.097 54.8578 337.517 52.0351 337.517 48.7098C337.517 45.4618 338.097 42.6391 339.257 40.2418C340.456 37.8058 342.099 35.9305 344.187 34.6158C346.275 33.3011 348.653 32.6438 351.321 32.6438ZM380.626 32.6438C383.217 32.6438 385.518 33.1851 387.528 34.2678C389.539 35.3505 391.144 37.0518 392.342 39.3718C393.541 41.6918 394.14 44.7271 394.14 48.4778C394.14 52.2285 393.541 55.2638 392.342 57.5838C391.144 59.8651 389.539 61.5471 387.528 62.6298C385.518 63.6738 383.217 64.1958 380.626 64.1958C378.074 64.1958 375.774 63.6738 373.724 62.6298C371.675 61.5471 370.051 59.8651 368.852 57.5838C367.692 55.2638 367.112 52.2285 367.112 48.4778C367.112 44.7271 367.692 41.6918 368.852 39.3718C370.051 37.0518 371.675 35.3505 373.724 34.2678C375.774 33.1851 378.074 32.6438 380.626 32.6438ZM380.626 33.8038C378.616 33.8038 376.972 34.9638 375.696 37.2838C374.42 39.5651 373.782 43.2965 373.782 48.4778C373.782 53.6591 374.42 57.3905 375.696 59.6718C376.972 61.9145 378.616 63.0358 380.626 63.0358C382.598 63.0358 384.222 61.9145 385.498 59.6718C386.813 57.3905 387.47 53.6591 387.47 48.4778C387.47 43.2965 386.813 39.5651 385.498 37.2838C384.222 34.9638 382.598 33.8038 380.626 33.8038ZM408.927 17.9118V57.9898C408.927 59.6138 409.237 60.7158 409.855 61.2958C410.513 61.8758 411.595 62.1658 413.103 62.1658V63.3838C412.446 63.3451 411.421 63.3065 410.029 63.2678C408.637 63.1905 407.245 63.1518 405.853 63.1518C404.461 63.1518 403.05 63.1905 401.619 63.2678C400.227 63.3065 399.183 63.3451 398.487 63.3838V62.1658C399.995 62.1658 401.059 61.8758 401.677 61.2958C402.335 60.7158 402.663 59.6138 402.663 57.9898V24.8718C402.663 23.1318 402.373 21.8558 401.793 21.0438C401.213 20.1931 400.111 19.7678 398.487 19.7678V18.5498C399.725 18.6658 400.923 18.7238 402.083 18.7238C403.359 18.7238 404.577 18.6658 405.737 18.5498C406.897 18.3951 407.961 18.1825 408.927 17.9118ZM430.978 32.6438C433.568 32.6438 435.869 33.1851 437.88 34.2678C439.89 35.3505 441.495 37.0518 442.694 39.3718C443.892 41.6918 444.492 44.7271 444.492 48.4778C444.492 52.2285 443.892 55.2638 442.694 57.5838C441.495 59.8651 439.89 61.5471 437.88 62.6298C435.869 63.6738 433.568 64.1958 430.978 64.1958C428.426 64.1958 426.125 63.6738 424.076 62.6298C422.026 61.5471 420.402 59.8651 419.204 57.5838C418.044 55.2638 417.464 52.2285 417.464 48.4778C417.464 44.7271 418.044 41.6918 419.204 39.3718C420.402 37.0518 422.026 35.3505 424.076 34.2678C426.125 33.1851 428.426 32.6438 430.978 32.6438ZM430.978 33.8038C428.967 33.8038 427.324 34.9638 426.048 37.2838C424.772 39.5651 424.134 43.2965 424.134 48.4778C424.134 53.6591 424.772 57.3905 426.048 59.6718C427.324 61.9145 428.967 63.0358 430.978 63.0358C432.95 63.0358 434.574 61.9145 435.85 59.6718C437.164 57.3905 437.822 53.6591 437.822 48.4778C437.822 43.2965 437.164 39.5651 435.85 37.2838C434.574 34.9638 432.95 33.8038 430.978 33.8038ZM476.955 32.8178V57.1198C476.955 58.8598 477.245 60.1551 477.825 61.0058C478.444 61.8178 479.546 62.2238 481.131 62.2238V63.4418C479.932 63.3258 478.734 63.2678 477.535 63.2678C476.259 63.2678 475.041 63.3258 473.881 63.4418C472.721 63.5578 471.658 63.7705 470.691 64.0798V57.7578C469.724 60.0778 468.371 61.7405 466.631 62.7458C464.93 63.7125 463.132 64.1958 461.237 64.1958C459.806 64.1958 458.588 63.9831 457.583 63.5578C456.578 63.1711 455.746 62.6491 455.089 61.9918C454.393 61.2185 453.91 60.2325 453.639 59.0338C453.368 57.7965 453.233 56.2498 453.233 54.3938V39.7778C453.233 38.0378 452.943 36.7618 452.363 35.9498C451.783 35.0991 450.681 34.6738 449.057 34.6738V33.4558C450.294 33.5718 451.493 33.6298 452.653 33.6298C453.929 33.6298 455.147 33.5718 456.307 33.4558C457.467 33.3011 458.53 33.0885 459.497 32.8178V56.0178C459.497 57.1391 459.574 58.1638 459.729 59.0918C459.884 60.0198 460.251 60.7545 460.831 61.2958C461.411 61.8371 462.339 62.1078 463.615 62.1078C464.968 62.1078 466.167 61.7018 467.211 60.8898C468.294 60.0778 469.144 58.9758 469.763 57.5838C470.382 56.1918 470.691 54.6258 470.691 52.8858V39.7778C470.691 38.0378 470.401 36.7618 469.821 35.9498C469.241 35.0991 468.139 34.6738 466.515 34.6738V33.4558C467.752 33.5718 468.951 33.6298 470.111 33.6298C471.387 33.6298 472.605 33.5718 473.765 33.4558C474.925 33.3011 475.988 33.0885 476.955 32.8178ZM503.743 32.6438C504.865 32.6438 505.812 32.8758 506.585 33.3398C507.397 33.8038 507.997 34.4031 508.383 35.1378C508.809 35.8338 509.021 36.6265 509.021 37.5158C509.021 38.6371 508.673 39.6038 507.977 40.4158C507.32 41.1891 506.431 41.5758 505.309 41.5758C504.343 41.5758 503.511 41.2858 502.815 40.7058C502.158 40.1258 501.829 39.3331 501.829 38.3278C501.829 37.4771 502.042 36.7618 502.467 36.1818C502.931 35.5631 503.453 35.0798 504.033 34.7318C503.647 34.4225 503.183 34.2871 502.641 34.3258C501.597 34.3645 500.631 34.7125 499.741 35.3698C498.852 35.9885 498.098 36.8005 497.479 37.8058C496.861 38.7725 496.377 39.8165 496.029 40.9378C495.681 42.0591 495.507 43.1031 495.507 44.0698V57.4098C495.507 59.3045 496.029 60.5805 497.073 61.2378C498.117 61.8565 499.567 62.1658 501.423 62.1658V63.3838C500.534 63.3451 499.258 63.3065 497.595 63.2678C495.971 63.1905 494.251 63.1518 492.433 63.1518C491.041 63.1518 489.649 63.1905 488.257 63.2678C486.865 63.3065 485.802 63.3451 485.067 63.3838V62.1658C486.575 62.1658 487.639 61.8758 488.257 61.2958C488.915 60.7158 489.243 59.6138 489.243 57.9898V39.7778C489.243 38.0378 488.953 36.7618 488.373 35.9498C487.793 35.0991 486.691 34.6738 485.067 34.6738V33.4558C486.305 33.5718 487.503 33.6298 488.663 33.6298C489.978 33.6298 491.196 33.5718 492.317 33.4558C493.477 33.3011 494.541 33.0885 495.507 32.8178V39.4878C495.971 38.3665 496.59 37.2838 497.363 36.2398C498.137 35.1958 499.065 34.3451 500.147 33.6878C501.23 32.9918 502.429 32.6438 503.743 32.6438ZM523.24 32.6438C524.786 32.6438 526.12 32.8951 527.242 33.3978C528.402 33.8618 529.233 34.2871 529.736 34.6738C531.012 35.6791 531.804 35.0218 532.114 32.7018H533.39C533.312 33.7845 533.254 35.0991 533.216 36.6458C533.177 38.1538 533.158 40.1645 533.158 42.6778H531.882C531.65 41.2471 531.244 39.8551 530.664 38.5018C530.122 37.1485 529.31 36.0271 528.228 35.1378C527.184 34.2485 525.811 33.8038 524.11 33.8038C522.834 33.8038 521.77 34.1711 520.92 34.9058C520.069 35.6018 519.644 36.6458 519.644 38.0378C519.644 39.1978 519.992 40.2031 520.688 41.0538C521.384 41.9045 522.273 42.6971 523.356 43.4318C524.477 44.1665 525.676 44.9591 526.952 45.8098C528.382 46.7765 529.658 47.7431 530.78 48.7098C531.94 49.6378 532.848 50.6818 533.506 51.8418C534.202 53.0018 534.55 54.3551 534.55 55.9018C534.55 57.6805 534.066 59.1885 533.1 60.4258C532.172 61.6631 530.934 62.6105 529.388 63.2678C527.841 63.8865 526.14 64.1958 524.284 64.1958C523.356 64.1958 522.486 64.0991 521.674 63.9058C520.862 63.7511 520.108 63.5385 519.412 63.2678C518.986 63.0358 518.561 62.8038 518.136 62.5718C517.749 62.3011 517.362 62.0498 516.976 61.8178C516.589 61.5471 516.241 61.5858 515.932 61.9338C515.622 62.2818 515.39 62.9005 515.236 63.7898H513.96C514.037 62.5525 514.095 61.0445 514.134 59.2658C514.172 57.4871 514.192 55.1285 514.192 52.1898H515.468C515.738 54.3165 516.144 56.1918 516.686 57.8158C517.227 59.4398 518.02 60.7158 519.064 61.6438C520.146 62.5331 521.616 62.9778 523.472 62.9778C524.206 62.9778 524.941 62.8231 525.676 62.5138C526.41 62.1658 527.01 61.6245 527.474 60.8898C527.976 60.1551 528.228 59.1691 528.228 57.9318C528.228 56.2305 527.628 54.8385 526.43 53.7558C525.27 52.6345 523.762 51.4551 521.906 50.2178C520.591 49.2898 519.334 48.3811 518.136 47.4918C516.976 46.5638 516.028 45.5391 515.294 44.4178C514.559 43.2578 514.192 41.8851 514.192 40.2998C514.192 38.5598 514.598 37.1291 515.41 36.0078C516.26 34.8865 517.382 34.0551 518.774 33.5138C520.166 32.9338 521.654 32.6438 523.24 32.6438Z" fill="#45D096"/>
</svg>
