<svg width="515" height="104" viewBox="0 0 515 104" fill="none" xmlns="http://www.w3.org/2000/svg">
<path d="M34.3434 32.1465C37.1594 32.1465 39.4634 32.5732 41.2554 33.4265C43.0901 34.2372 44.7114 35.1972 46.1194 36.3065C46.9728 36.9465 47.6128 37.0318 48.0394 36.5625C48.5088 36.0505 48.8288 34.8772 48.9994 33.0425H50.4714C50.3861 34.6638 50.3221 36.6265 50.2794 38.9305C50.2368 41.1918 50.2154 44.2212 50.2154 48.0185H48.7434C48.4448 46.1412 48.1461 44.6052 47.8474 43.4105C47.5914 42.2158 47.2288 41.1918 46.7594 40.3385C46.3328 39.4852 45.7354 38.6532 44.9674 37.8425C43.7301 36.3065 42.2154 35.1972 40.4234 34.5145C38.6314 33.8318 36.7328 33.4905 34.7274 33.4905C32.5514 33.4905 30.6314 34.0452 28.9674 35.1545C27.3034 36.2212 25.8954 37.7572 24.7434 39.7625C23.6341 41.7678 22.7808 44.1358 22.1834 46.8665C21.5861 49.5972 21.2874 52.5838 21.2874 55.8265C21.2874 59.1545 21.6074 62.1838 22.2474 64.9145C22.8874 67.6025 23.8048 69.9278 24.9994 71.8905C26.2368 73.8105 27.7088 75.3038 29.4154 76.3705C31.1648 77.3945 33.1061 77.9065 35.2394 77.9065C36.9888 77.9065 38.8021 77.5652 40.6794 76.8825C42.5568 76.1572 44.0501 75.0692 45.1594 73.6185C46.3541 72.3385 47.1648 70.9092 47.5914 69.3305C48.0608 67.7092 48.4448 65.5118 48.7434 62.7385H50.2154C50.2154 66.6638 50.2368 69.8425 50.2794 72.2745C50.3221 74.6638 50.3861 76.6905 50.4714 78.3545H48.9994C48.8288 76.5198 48.5301 75.3678 48.1034 74.8985C47.7194 74.4292 47.0581 74.4932 46.1194 75.0905C44.5408 76.1998 42.8554 77.1812 41.0634 78.0345C39.3141 78.8452 37.0528 79.2505 34.2794 79.2505C30.0554 79.2505 26.3648 78.3332 23.2074 76.4985C20.0501 74.6638 17.5968 72.0185 15.8474 68.5625C14.0981 65.1065 13.2234 60.9465 13.2234 56.0825C13.2234 51.3038 14.1194 47.1225 15.9114 43.5385C17.7461 39.9545 20.2421 37.1598 23.3994 35.1545C26.5568 33.1492 30.2048 32.1465 34.3434 32.1465ZM68.5409 28.2425V51.5385C69.6076 48.8932 71.1009 47.0585 73.0209 46.0345C74.9836 44.9678 77.0529 44.4345 79.2289 44.4345C80.9356 44.4345 82.3223 44.6692 83.3889 45.1385C84.4983 45.5652 85.4156 46.1625 86.1409 46.9305C86.9089 47.7412 87.4636 48.7865 87.8049 50.0665C88.1463 51.3465 88.3169 53.0745 88.3169 55.2505V72.4025C88.3169 74.1945 88.6583 75.4105 89.3409 76.0505C90.0663 76.6905 91.2609 77.0105 92.9249 77.0105V78.3545C92.1569 78.3118 91.0049 78.2692 89.4689 78.2265C87.9329 78.1412 86.4396 78.0985 84.9889 78.0985C83.4956 78.0985 82.0236 78.1412 80.5729 78.2265C79.1649 78.2692 78.1196 78.3118 77.4369 78.3545V77.0105C78.8876 77.0105 79.9116 76.6905 80.5089 76.0505C81.1063 75.4105 81.4049 74.1945 81.4049 72.4025V53.4585C81.4049 52.2212 81.2983 51.1118 81.0849 50.1305C80.8716 49.1065 80.4023 48.2958 79.6769 47.6985C78.9943 47.0585 77.9703 46.7385 76.6049 46.7385C75.0689 46.7385 73.6823 47.1865 72.4449 48.0825C71.2503 48.9358 70.2903 50.1305 69.5649 51.6665C68.8823 53.2025 68.5409 54.9518 68.5409 56.9145V72.4025C68.5409 74.1945 68.8396 75.4105 69.4369 76.0505C70.0343 76.6905 71.0583 77.0105 72.5089 77.0105V78.3545C71.7836 78.3118 70.7169 78.2692 69.3089 78.2265C67.9436 78.1412 66.5356 78.0985 65.0849 78.0985C63.5916 78.0985 62.0556 78.1412 60.4769 78.2265C58.9409 78.2692 57.7889 78.3118 57.0209 78.3545V77.0105C58.6849 77.0105 59.8583 76.6905 60.5409 76.0505C61.2663 75.4105 61.6289 74.1945 61.6289 72.4025V35.9225C61.6289 34.0025 61.2876 32.5945 60.6049 31.6985C59.9649 30.7598 58.7703 30.2905 57.0209 30.2905V28.9465C58.3863 29.0745 59.7089 29.1385 60.9889 29.1385C62.3969 29.1385 63.7409 29.0745 65.0209 28.9465C66.3009 28.7758 67.4743 28.5412 68.5409 28.2425ZM112.811 44.4345C115.67 44.4345 118.209 45.0318 120.427 46.2265C122.646 47.4212 124.417 49.2985 125.739 51.8585C127.062 54.4185 127.723 57.7678 127.723 61.9065C127.723 66.0452 127.062 69.3945 125.739 71.9545C124.417 74.4718 122.646 76.3278 120.427 77.5225C118.209 78.6745 115.67 79.2505 112.811 79.2505C109.995 79.2505 107.457 78.6745 105.195 77.5225C102.934 76.3278 101.142 74.4718 99.8194 71.9545C98.5394 69.3945 97.8994 66.0452 97.8994 61.9065C97.8994 57.7678 98.5394 54.4185 99.8194 51.8585C101.142 49.2985 102.934 47.4212 105.195 46.2265C107.457 45.0318 109.995 44.4345 112.811 44.4345ZM112.811 45.7145C110.593 45.7145 108.779 46.9945 107.371 49.5545C105.963 52.0718 105.259 56.1892 105.259 61.9065C105.259 67.6238 105.963 71.7412 107.371 74.2585C108.779 76.7332 110.593 77.9705 112.811 77.9705C114.987 77.9705 116.779 76.7332 118.187 74.2585C119.638 71.7412 120.363 67.6238 120.363 61.9065C120.363 56.1892 119.638 52.0718 118.187 49.5545C116.779 46.9945 114.987 45.7145 112.811 45.7145ZM145.433 44.4345C147.14 44.4345 148.612 44.7118 149.849 45.2665C151.129 45.7785 152.046 46.2478 152.601 46.6745C154.009 47.7838 154.884 47.0585 155.225 44.4985H156.633C156.548 45.6932 156.484 47.1438 156.441 48.8505C156.398 50.5145 156.377 52.7332 156.377 55.5065H154.969C154.713 53.9278 154.265 52.3918 153.625 50.8985C153.028 49.4052 152.132 48.1678 150.937 47.1865C149.785 46.2052 148.27 45.7145 146.393 45.7145C144.985 45.7145 143.812 46.1198 142.873 46.9305C141.934 47.6985 141.465 48.8505 141.465 50.3865C141.465 51.6665 141.849 52.7758 142.617 53.7145C143.385 54.6532 144.366 55.5278 145.561 56.3385C146.798 57.1492 148.121 58.0238 149.529 58.9625C151.108 60.0292 152.516 61.0958 153.753 62.1625C155.033 63.1865 156.036 64.3385 156.761 65.6185C157.529 66.8985 157.913 68.3918 157.913 70.0985C157.913 72.0612 157.38 73.7252 156.313 75.0905C155.289 76.4558 153.924 77.5012 152.217 78.2265C150.51 78.9092 148.633 79.2505 146.585 79.2505C145.561 79.2505 144.601 79.1438 143.705 78.9305C142.809 78.7598 141.977 78.5252 141.209 78.2265C140.74 77.9705 140.27 77.7145 139.801 77.4585C139.374 77.1598 138.948 76.8825 138.521 76.6265C138.094 76.3278 137.71 76.3705 137.369 76.7545C137.028 77.1385 136.772 77.8212 136.601 78.8025H135.193C135.278 77.4372 135.342 75.7732 135.385 73.8105C135.428 71.8478 135.449 69.2452 135.449 66.0025H136.857C137.156 68.3492 137.604 70.4185 138.201 72.2105C138.798 74.0025 139.673 75.4105 140.825 76.4345C142.02 77.4158 143.641 77.9065 145.689 77.9065C146.5 77.9065 147.31 77.7358 148.121 77.3945C148.932 77.0105 149.593 76.4132 150.105 75.6025C150.66 74.7918 150.937 73.7038 150.937 72.3385C150.937 70.4612 150.276 68.9252 148.953 67.7305C147.673 66.4932 146.009 65.1918 143.961 63.8265C142.51 62.8025 141.124 61.7998 139.801 60.8185C138.521 59.7945 137.476 58.6638 136.665 57.4265C135.854 56.1465 135.449 54.6318 135.449 52.8825C135.449 50.9625 135.897 49.3838 136.793 48.1465C137.732 46.9092 138.969 45.9918 140.505 45.3945C142.041 44.7545 143.684 44.4345 145.433 44.4345ZM179.618 44.4345C183.373 44.4345 186.317 45.5652 188.45 47.8265C190.584 50.0878 191.65 53.6718 191.65 58.5785H169.57L169.442 57.3625H184.866C184.909 55.2718 184.738 53.3518 184.354 51.6025C183.97 49.8105 183.373 48.3812 182.562 47.3145C181.752 46.2478 180.685 45.7145 179.362 45.7145C177.528 45.7145 175.928 46.6958 174.562 48.6585C173.24 50.5785 172.429 53.6718 172.13 57.9385L172.322 58.2585C172.28 58.8558 172.237 59.5172 172.194 60.2425C172.152 60.9252 172.13 61.6078 172.13 62.2905C172.13 65.2345 172.578 67.7092 173.474 69.7145C174.37 71.7198 175.544 73.2345 176.994 74.2585C178.445 75.2398 179.917 75.7305 181.41 75.7305C182.562 75.7305 183.672 75.5598 184.738 75.2185C185.848 74.8345 186.893 74.2158 187.874 73.3625C188.856 72.4665 189.73 71.2505 190.498 69.7145L191.778 70.2265C191.266 71.6772 190.477 73.1065 189.41 74.5145C188.344 75.9225 186.978 77.0745 185.314 77.9705C183.65 78.8238 181.709 79.2505 179.49 79.2505C176.504 79.2505 173.901 78.5892 171.682 77.2665C169.464 75.9012 167.757 73.9598 166.562 71.4425C165.368 68.9252 164.77 65.9385 164.77 62.4825C164.77 58.6852 165.389 55.4425 166.626 52.7545C167.864 50.0665 169.592 48.0185 171.81 46.6105C174.072 45.1598 176.674 44.4345 179.618 44.4345ZM242.766 45.3305V46.6105C241.955 46.7385 241.209 47.1652 240.526 47.8905C239.843 48.5732 239.182 49.7678 238.542 51.4745L228.558 78.2265L227.022 79.7625L214.542 50.2585C213.731 48.5945 212.942 47.5918 212.174 47.2505C211.449 46.8665 210.83 46.6745 210.318 46.6745V45.3305C211.385 45.4585 212.515 45.5652 213.71 45.6505C214.905 45.6932 216.142 45.7145 217.422 45.7145C218.873 45.7145 220.323 45.6718 221.774 45.5865C223.267 45.5012 224.654 45.4158 225.934 45.3305V46.6745C224.91 46.6745 223.993 46.7598 223.182 46.9305C222.414 47.0585 221.902 47.4638 221.646 48.1465C221.433 48.7865 221.646 49.8958 222.286 51.4745L230.222 70.9945L229.774 71.1865L236.238 54.0345C236.878 52.3278 237.134 50.9625 237.006 49.9385C236.878 48.8718 236.43 48.0825 235.662 47.5705C234.894 47.0158 233.763 46.6958 232.27 46.6105V45.3305C232.995 45.3732 233.657 45.4158 234.254 45.4585C234.894 45.4585 235.513 45.4798 236.11 45.5225C236.707 45.5225 237.305 45.5225 237.902 45.5225C238.841 45.5225 239.715 45.5012 240.526 45.4585C241.379 45.4158 242.126 45.3732 242.766 45.3305ZM228.558 78.2265L226.254 84.2425C225.827 85.3092 225.379 86.2052 224.91 86.9305C224.483 87.6558 224.014 88.2532 223.502 88.7225C222.862 89.3198 222.073 89.7465 221.134 90.0025C220.195 90.2585 219.257 90.3865 218.318 90.3865C217.422 90.3865 216.569 90.2158 215.758 89.8745C214.99 89.5758 214.35 89.1065 213.838 88.4665C213.326 87.8265 213.07 87.0372 213.07 86.0985C213.07 84.9892 213.433 84.0932 214.158 83.4105C214.883 82.7278 215.843 82.3865 217.038 82.3865C218.105 82.3865 219.001 82.6638 219.726 83.2185C220.451 83.8158 220.814 84.6692 220.814 85.7785C220.814 86.5465 220.601 87.2078 220.174 87.7625C219.79 88.3172 219.278 88.7438 218.638 89.0425C218.766 89.0852 218.894 89.1065 219.022 89.1065C219.15 89.1065 219.257 89.1065 219.342 89.1065C220.537 89.1065 221.603 88.7012 222.542 87.8905C223.481 87.1225 224.27 85.8638 224.91 84.1145L227.214 77.9705L228.558 78.2265ZM261.649 44.4345C264.508 44.4345 267.046 45.0318 269.265 46.2265C271.484 47.4212 273.254 49.2985 274.577 51.8585C275.9 54.4185 276.561 57.7678 276.561 61.9065C276.561 66.0452 275.9 69.3945 274.577 71.9545C273.254 74.4718 271.484 76.3278 269.265 77.5225C267.046 78.6745 264.508 79.2505 261.649 79.2505C258.833 79.2505 256.294 78.6745 254.033 77.5225C251.772 76.3278 249.98 74.4718 248.657 71.9545C247.377 69.3945 246.737 66.0452 246.737 61.9065C246.737 57.7678 247.377 54.4185 248.657 51.8585C249.98 49.2985 251.772 47.4212 254.033 46.2265C256.294 45.0318 258.833 44.4345 261.649 44.4345ZM261.649 45.7145C259.43 45.7145 257.617 46.9945 256.209 49.5545C254.801 52.0718 254.097 56.1892 254.097 61.9065C254.097 67.6238 254.801 71.7412 256.209 74.2585C257.617 76.7332 259.43 77.9705 261.649 77.9705C263.825 77.9705 265.617 76.7332 267.025 74.2585C268.476 71.7412 269.201 67.6238 269.201 61.9065C269.201 56.1892 268.476 52.0718 267.025 49.5545C265.617 46.9945 263.825 45.7145 261.649 45.7145ZM312.382 44.6265V71.4425C312.382 73.3625 312.702 74.7918 313.342 75.7305C314.025 76.6265 315.241 77.0745 316.99 77.0745V78.4185C315.668 78.2905 314.345 78.2265 313.022 78.2265C311.614 78.2265 310.27 78.2905 308.99 78.4185C307.71 78.5465 306.537 78.7812 305.47 79.1225V72.1465C304.404 74.7065 302.91 76.5412 300.99 77.6505C299.113 78.7172 297.129 79.2505 295.038 79.2505C293.46 79.2505 292.116 79.0158 291.006 78.5465C289.897 78.1198 288.98 77.5438 288.254 76.8185C287.486 75.9652 286.953 74.8772 286.654 73.5545C286.356 72.1892 286.206 70.4825 286.206 68.4345V52.3065C286.206 50.3865 285.886 48.9785 285.246 48.0825C284.606 47.1438 283.39 46.6745 281.598 46.6745V45.3305C282.964 45.4585 284.286 45.5225 285.566 45.5225C286.974 45.5225 288.318 45.4585 289.598 45.3305C290.878 45.1598 292.052 44.9252 293.118 44.6265V70.2265C293.118 71.4638 293.204 72.5945 293.374 73.6185C293.545 74.6425 293.95 75.4532 294.59 76.0505C295.23 76.6478 296.254 76.9465 297.662 76.9465C299.156 76.9465 300.478 76.4985 301.63 75.6025C302.825 74.7065 303.764 73.4905 304.446 71.9545C305.129 70.4185 305.47 68.6905 305.47 66.7705V52.3065C305.47 50.3865 305.15 48.9785 304.51 48.0825C303.87 47.1438 302.654 46.6745 300.862 46.6745V45.3305C302.228 45.4585 303.55 45.5225 304.83 45.5225C306.238 45.5225 307.582 45.4585 308.862 45.3305C310.142 45.1598 311.316 44.9252 312.382 44.6265ZM341.942 44.4345C343.179 44.4345 344.225 44.6905 345.078 45.2025C345.974 45.7145 346.635 46.3758 347.062 47.1865C347.531 47.9545 347.766 48.8292 347.766 49.8105C347.766 51.0478 347.382 52.1145 346.614 53.0105C345.889 53.8638 344.907 54.2905 343.67 54.2905C342.603 54.2905 341.686 53.9705 340.918 53.3305C340.193 52.6905 339.83 51.8158 339.83 50.7065C339.83 49.7678 340.065 48.9785 340.534 48.3385C341.046 47.6558 341.622 47.1225 342.262 46.7385C341.835 46.3972 341.323 46.2478 340.726 46.2905C339.574 46.3332 338.507 46.7172 337.526 47.4425C336.545 48.1252 335.713 49.0212 335.03 50.1305C334.347 51.1972 333.814 52.3492 333.43 53.5865C333.046 54.8238 332.854 55.9758 332.854 57.0425V71.7625C332.854 73.8532 333.43 75.2612 334.582 75.9865C335.734 76.6692 337.334 77.0105 339.382 77.0105V78.3545C338.401 78.3118 336.993 78.2692 335.158 78.2265C333.366 78.1412 331.467 78.0985 329.462 78.0985C327.926 78.0985 326.39 78.1412 324.854 78.2265C323.318 78.2692 322.145 78.3118 321.334 78.3545V77.0105C322.998 77.0105 324.171 76.6905 324.854 76.0505C325.579 75.4105 325.942 74.1945 325.942 72.4025V52.3065C325.942 50.3865 325.622 48.9785 324.982 48.0825C324.342 47.1438 323.126 46.6745 321.334 46.6745V45.3305C322.699 45.4585 324.022 45.5225 325.302 45.5225C326.753 45.5225 328.097 45.4585 329.334 45.3305C330.614 45.1598 331.787 44.9252 332.854 44.6265V51.9865C333.366 50.7492 334.049 49.5545 334.902 48.4025C335.755 47.2505 336.779 46.3118 337.974 45.5865C339.169 44.8185 340.491 44.4345 341.942 44.4345ZM378.985 44.4345C380.692 44.4345 382.164 44.7118 383.401 45.2665C384.681 45.7785 385.599 46.2478 386.153 46.6745C387.561 47.7838 388.436 47.0585 388.777 44.4985H390.185C390.1 45.6932 390.036 47.1438 389.993 48.8505C389.951 50.5145 389.929 52.7332 389.929 55.5065H388.521C388.265 53.9278 387.817 52.3918 387.177 50.8985C386.58 49.4052 385.684 48.1678 384.489 47.1865C383.337 46.2052 381.823 45.7145 379.945 45.7145C378.537 45.7145 377.364 46.1198 376.425 46.9305C375.487 47.6985 375.017 48.8505 375.017 50.3865C375.017 51.6665 375.401 52.7758 376.169 53.7145C376.937 54.6532 377.919 55.5278 379.113 56.3385C380.351 57.1492 381.673 58.0238 383.081 58.9625C384.66 60.0292 386.068 61.0958 387.305 62.1625C388.585 63.1865 389.588 64.3385 390.313 65.6185C391.081 66.8985 391.465 68.3918 391.465 70.0985C391.465 72.0612 390.932 73.7252 389.865 75.0905C388.841 76.4558 387.476 77.5012 385.769 78.2265C384.063 78.9092 382.185 79.2505 380.137 79.2505C379.113 79.2505 378.153 79.1438 377.257 78.9305C376.361 78.7598 375.529 78.5252 374.761 78.2265C374.292 77.9705 373.823 77.7145 373.353 77.4585C372.927 77.1598 372.5 76.8825 372.073 76.6265C371.647 76.3278 371.263 76.3705 370.921 76.7545C370.58 77.1385 370.324 77.8212 370.153 78.8025H368.745C368.831 77.4372 368.895 75.7732 368.937 73.8105C368.98 71.8478 369.001 69.2452 369.001 66.0025H370.409C370.708 68.3492 371.156 70.4185 371.753 72.2105C372.351 74.0025 373.225 75.4105 374.377 76.4345C375.572 77.4158 377.193 77.9065 379.241 77.9065C380.052 77.9065 380.863 77.7358 381.673 77.3945C382.484 77.0105 383.145 76.4132 383.657 75.6025C384.212 74.7918 384.489 73.7038 384.489 72.3385C384.489 70.4612 383.828 68.9252 382.505 67.7305C381.225 66.4932 379.561 65.1918 377.513 63.8265C376.063 62.8025 374.676 61.7998 373.353 60.8185C372.073 59.7945 371.028 58.6638 370.217 57.4265C369.407 56.1465 369.001 54.6318 369.001 52.8825C369.001 50.9625 369.449 49.3838 370.345 48.1465C371.284 46.9092 372.521 45.9918 374.057 45.3945C375.593 44.7545 377.236 44.4345 378.985 44.4345ZM408.499 34.7705V45.3945H417.331V46.6745H408.499V71.8265C408.499 73.5758 408.819 74.8132 409.459 75.5385C410.099 76.2638 411.016 76.6265 412.211 76.6265C413.32 76.6265 414.302 76.1785 415.155 75.2825C416.051 74.3865 416.819 72.8718 417.459 70.7385L418.675 71.1865C418.163 73.4478 417.246 75.3678 415.923 76.9465C414.643 78.4825 412.744 79.2505 410.227 79.2505C408.776 79.2505 407.56 79.0585 406.579 78.6745C405.598 78.3332 404.744 77.8212 404.019 77.1385C403.08 76.1572 402.44 74.9838 402.099 73.6185C401.758 72.2532 401.587 70.4398 401.587 68.1785V46.6745H395.699V45.3945H401.587V36.0505C402.91 36.0078 404.147 35.9012 405.299 35.7305C406.451 35.5172 407.518 35.1972 408.499 34.7705ZM451.413 45.3305V46.6105C450.603 46.7385 449.856 47.1652 449.173 47.8905C448.491 48.5732 447.829 49.7678 447.189 51.4745L437.205 78.2265L435.669 79.7625L423.189 50.2585C422.379 48.5945 421.589 47.5918 420.821 47.2505C420.096 46.8665 419.477 46.6745 418.965 46.6745V45.3305C420.032 45.4585 421.163 45.5652 422.357 45.6505C423.552 45.6932 424.789 45.7145 426.069 45.7145C427.52 45.7145 428.971 45.6718 430.421 45.5865C431.915 45.5012 433.301 45.4158 434.581 45.3305V46.6745C433.557 46.6745 432.64 46.7598 431.829 46.9305C431.061 47.0585 430.549 47.4638 430.293 48.1465C430.08 48.7865 430.293 49.8958 430.933 51.4745L438.869 70.9945L438.421 71.1865L444.885 54.0345C445.525 52.3278 445.781 50.9625 445.653 49.9385C445.525 48.8718 445.077 48.0825 444.309 47.5705C443.541 47.0158 442.411 46.6958 440.917 46.6105V45.3305C441.643 45.3732 442.304 45.4158 442.901 45.4585C443.541 45.4585 444.16 45.4798 444.757 45.5225C445.355 45.5225 445.952 45.5225 446.549 45.5225C447.488 45.5225 448.363 45.5012 449.173 45.4585C450.027 45.4158 450.773 45.3732 451.413 45.3305ZM437.205 78.2265L434.901 84.2425C434.475 85.3092 434.027 86.2052 433.557 86.9305C433.131 87.6558 432.661 88.2532 432.149 88.7225C431.509 89.3198 430.72 89.7465 429.781 90.0025C428.843 90.2585 427.904 90.3865 426.965 90.3865C426.069 90.3865 425.216 90.2158 424.405 89.8745C423.637 89.5758 422.997 89.1065 422.485 88.4665C421.973 87.8265 421.717 87.0372 421.717 86.0985C421.717 84.9892 422.08 84.0932 422.805 83.4105C423.531 82.7278 424.491 82.3865 425.685 82.3865C426.752 82.3865 427.648 82.6638 428.373 83.2185C429.099 83.8158 429.461 84.6692 429.461 85.7785C429.461 86.5465 429.248 87.2078 428.821 87.7625C428.437 88.3172 427.925 88.7438 427.285 89.0425C427.413 89.0852 427.541 89.1065 427.669 89.1065C427.797 89.1065 427.904 89.1065 427.989 89.1065C429.184 89.1065 430.251 88.7012 431.189 87.8905C432.128 87.1225 432.917 85.8638 433.557 84.1145L435.861 77.9705L437.205 78.2265ZM464.432 28.1785V72.4025C464.432 74.1945 464.774 75.4105 465.456 76.0505C466.182 76.6905 467.376 77.0105 469.04 77.0105V78.3545C468.315 78.3118 467.184 78.2692 465.648 78.2265C464.112 78.1412 462.576 78.0985 461.04 78.0985C459.504 78.0985 457.947 78.1412 456.368 78.2265C454.832 78.2692 453.68 78.3118 452.912 78.3545V77.0105C454.576 77.0105 455.75 76.6905 456.432 76.0505C457.158 75.4105 457.52 74.1945 457.52 72.4025V35.8585C457.52 33.9385 457.2 32.5305 456.56 31.6345C455.92 30.6958 454.704 30.2265 452.912 30.2265V28.8825C454.278 29.0105 455.6 29.0745 456.88 29.0745C458.288 29.0745 459.632 29.0105 460.912 28.8825C462.192 28.7118 463.366 28.4772 464.432 28.1785ZM488.636 44.4345C492.391 44.4345 495.335 45.5652 497.468 47.8265C499.601 50.0878 500.668 53.6718 500.668 58.5785H478.588L478.46 57.3625H493.884C493.927 55.2718 493.756 53.3518 493.372 51.6025C492.988 49.8105 492.391 48.3812 491.58 47.3145C490.769 46.2478 489.703 45.7145 488.38 45.7145C486.545 45.7145 484.945 46.6958 483.58 48.6585C482.257 50.5785 481.447 53.6718 481.148 57.9385L481.34 58.2585C481.297 58.8558 481.255 59.5172 481.212 60.2425C481.169 60.9252 481.148 61.6078 481.148 62.2905C481.148 65.2345 481.596 67.7092 482.492 69.7145C483.388 71.7198 484.561 73.2345 486.012 74.2585C487.463 75.2398 488.935 75.7305 490.428 75.7305C491.58 75.7305 492.689 75.5598 493.756 75.2185C494.865 74.8345 495.911 74.2158 496.892 73.3625C497.873 72.4665 498.748 71.2505 499.516 69.7145L500.796 70.2265C500.284 71.6772 499.495 73.1065 498.428 74.5145C497.361 75.9225 495.996 77.0745 494.332 77.9705C492.668 78.8238 490.727 79.2505 488.508 79.2505C485.521 79.2505 482.919 78.5892 480.7 77.2665C478.481 75.9012 476.775 73.9598 475.58 71.4425C474.385 68.9252 473.788 65.9385 473.788 62.4825C473.788 58.6852 474.407 55.4425 475.644 52.7545C476.881 50.0665 478.609 48.0185 480.828 46.6105C483.089 45.1598 485.692 44.4345 488.636 44.4345Z" fill="black"/>
</svg>
